<?xml version="1.0" encoding="UTF-8" standalone="no"?>
<svg
   viewBox="0 0 285.17952 395.78418"
   version="1.1"
   id="svg40"
   sodipodi:docname="os-dois-na-vertical.svg"
   inkscape:version="1.2.2 (b0a8486541, 2022-12-01)"
   width="75.453758mm"
   height="104.7179mm"
   xml:space="preserve"
   inkscape:export-filename="os-dois-na-vertical.png"
   inkscape:export-xdpi="500"
   inkscape:export-ydpi="500"
   xmlns:inkscape="http://www.inkscape.org/namespaces/inkscape"
   xmlns:sodipodi="http://sodipodi.sourceforge.net/DTD/sodipodi-0.dtd"
   xmlns="http://www.w3.org/2000/svg"
   xmlns:svg="http://www.w3.org/2000/svg"
   xmlns:rdf="http://www.w3.org/1999/02/22-rdf-syntax-ns#"
   xmlns:cc="http://creativecommons.org/ns#"
   xmlns:dc="http://purl.org/dc/elements/1.1/"><metadata
     id="metadata44"><rdf:RDF><cc:Work
         rdf:about=""><dc:format>image/svg+xml</dc:format><dc:type
           rdf:resource="http://purl.org/dc/dcmitype/StillImage" /><dc:title>Ativo 4</dc:title></cc:Work></rdf:RDF></metadata><sodipodi:namedview
     pagecolor="#ffffff"
     bordercolor="#666666"
     borderopacity="1"
     objecttolerance="10"
     gridtolerance="10"
     guidetolerance="10"
     inkscape:pageopacity="0"
     inkscape:pageshadow="2"
     inkscape:window-width="1920"
     inkscape:window-height="1131"
     id="namedview42"
     showgrid="false"
     inkscape:zoom="1.314942"
     inkscape:cx="53.234287"
     inkscape:cy="196.20637"
     inkscape:window-x="0"
     inkscape:window-y="0"
     inkscape:window-maximized="1"
     inkscape:current-layer="svg40"
     showguides="true"
     inkscape:guide-bbox="true"
     units="px"
     fit-margin-top="0"
     fit-margin-left="0"
     fit-margin-right="0"
     fit-margin-bottom="0"
     inkscape:showpageshadow="2"
     inkscape:pagecheckerboard="0"
     inkscape:deskcolor="#d1d1d1"
     inkscape:document-units="mm" /><defs
     id="defs4"><style
       id="style2">.cls-1{fill:#fff;}</style><filter
       style="color-interpolation-filters:sRGB"
       inkscape:label="Greyscale"
       id="filter4035"
       x="0"
       y="0"
       width="1"
       height="1"><feColorMatrix
         values="-1 0 0 0 1 0 -1 0 0 1 0 0 -1 0 1 0.21 0.72 0.07 1 0 "
         result="fbSourceGraphic"
         id="feColorMatrix4033" /><feColorMatrix
         result="fbSourceGraphicAlpha"
         in="fbSourceGraphic"
         values="0 0 0 -1 0 0 0 0 -1 0 0 0 0 -1 0 0 0 0 1 0"
         id="feColorMatrix4037" /><feColorMatrix
         id="feColorMatrix4039"
         values="0.21 0.72 0.072 0 0 0.21 0.72 0.072 0 0 0.21 0.72 0.072 0 0 0 0 0 1 0 "
         in="fbSourceGraphic" /></filter><filter
       style="color-interpolation-filters:sRGB"
       inkscape:label="Greyscale"
       id="filter4035-3"
       x="0"
       y="0"
       width="1"
       height="1"><feColorMatrix
         values="-1 0 0 0 1 0 -1 0 0 1 0 0 -1 0 1 0.21 0.72 0.07 1 0 "
         result="fbSourceGraphic"
         id="feColorMatrix4033-6" /><feColorMatrix
         result="fbSourceGraphicAlpha"
         in="fbSourceGraphic"
         values="0 0 0 -1 0 0 0 0 -1 0 0 0 0 -1 0 0 0 0 1 0"
         id="feColorMatrix4037-7" /><feColorMatrix
         id="feColorMatrix4039-5"
         values="0.21 0.72 0.072 0 0 0.21 0.72 0.072 0 0 0.21 0.72 0.072 0 0 0 0 0 1 0 "
         in="fbSourceGraphic" /></filter><style
       id="style2-9">.cls-1{fill:#fff;}</style></defs><title
     id="title6">Ativo 4</title><g
     inkscape:label="Camada 1"
     id="layer1"
     transform="matrix(0.55966838,0,0,0.55966838,161.22054,176.36322)"
     style="fill:#000000;fill-opacity:1"><text
       xml:space="preserve"
       style="font-size:26.9875px;line-height:1.25;font-family:Trueno;-inkscape-font-specification:Trueno;letter-spacing:0px;word-spacing:0px;writing-mode:lr-tb;fill:#000000;fill-opacity:1;stroke-width:0.264583"
       x="-289.19788"
       y="386.71179"
       id="text355"><tspan
         sodipodi:role="line"
         id="tspan353"
         style="font-style:normal;font-variant:normal;font-weight:300;font-stretch:normal;font-size:26.9875px;font-family:Trueno;-inkscape-font-specification:'Trueno Light';fill:#000000;fill-opacity:1;stroke-width:0.264583"
         x="-289.19788"
         y="386.71179">digital technology for the environment</tspan></text><text
       xml:space="preserve"
       style="font-size:63.9586px;line-height:1.25;font-family:Aclonica;-inkscape-font-specification:Aclonica;letter-spacing:0px;word-spacing:0px;writing-mode:lr-tb;fill:#000000;fill-opacity:1;stroke-width:0.264583"
       x="-236.66594"
       y="348.65216"
       id="text463"><tspan
         sodipodi:role="line"
         id="tspan461"
         style="font-size:63.9586px;fill:#000000;fill-opacity:1;stroke-width:0.264583"
         x="-236.66594"
         y="348.65216">ECO Sustain</tspan></text><path
       style="fill:#000000;fill-opacity:1;stroke-width:0.352778"
       d="m -156.74736,273.84514 c -1.12769,-1.12768 -6.30372,-10.00528 -9.01442,-15.46096 -23.79952,-47.89989 -18.75038,-105.64931 12.9802,-148.46073 C -99.225085,37.66415 5.5813351,31.29372 67.117845,96.557352 105.62153,137.39308 116.7727,196.64399 95.743999,248.66014 c -3.16201,7.8215 -10.824314,22.2502 -13.279894,25.00704 l -0.74009,0.83089 -31.66442,-0.0901 -31.6644,-0.0901 -0.23944,-1.05833 c -0.13169,-0.58209 -0.52004,-2.64584 -0.86299,-4.58612 -1.46867,-8.30899 -5.03464,-16.36031 -10.3978399,-23.47647 -1.397,-1.8536 -13.07056,-13.86061 -30.8519901,-31.73325 -29.62813,-29.7801 -29.85193,-30.02552 -31.81759,-34.89201 -4.87366,-12.06598 3.34206,-29.57314 16.80515,-35.81068 2.18606,-1.01282 2.55679,-0.92359 6.87266,1.6542 17.55779,10.48695 19.69411,36.01474 4.20808,50.28416 -1.44132,1.32809 -2.62058,2.56491 -2.62058,2.74849 0,0.18358 1.26958,1.59591 2.82128,3.13851 l 2.82128,2.80473 8.20036,-8.10467 c 11.5457001,-11.41096 10.9384401,-10.72824 10.6603701,-11.98523 -0.12876,-0.58208 -0.36964,-1.69333 -0.53528,-2.46944 -0.60604,-2.83959 -0.38529,-10.07023 0.39885,-13.064 2.87203,-10.96507 10.96009,-19.23617 22.3189799,-22.82406 5.91824,-1.86937 19.19113,-0.63118 20.84183,1.94427 2.52702,3.94268 3.04747,15.42282 0.97109,21.42017 -5.32967,15.39406 -20.63897,24.4247 -36.1787399,21.3411 l -3.11916,-0.61894 -9.3087601,9.30379 c -5.11982,5.11708 -9.30876,9.46664 -9.30876,9.66568 0,0.57035 6.83168,7.22782 7.41696,7.22782 0.28885,0 5.0289401,-4.50585 10.5335401,-10.01299 l 10.00837,-10.01299 2.5129199,-0.23523 c 1.38211,-0.12938 3.51377,-0.40384 4.73702,-0.60991 1.22325,-0.20607 2.32748,-0.27129 2.45384,-0.14493 0.12636,0.12636 -5.53756,5.99868 -12.5864899,13.0496 -7.04893,7.05091 -12.75691,12.98706 -12.68439,13.19144 0.0725,0.20438 3.9464,4.23497 8.60865,8.95687 13.9807999,14.15971 19.7904799,23.55431 22.0750099,35.69666 0.22312,1.18591 0.65402,2.35464 0.95755,2.59718 1.04612,0.8359 53.85985,0.62034 54.70348,-0.22327 0.36534,-0.36534 1.90708,-2.86565 3.42611,-5.55625 8.932084,-15.82108 14.978344,-34.56519 16.712704,-51.81146 1.402501,-13.94592 1.403001,-14.91138 0.0159,-29.80972 C 96.796219,157.00611 87.128725,132.33496 72.569725,112.94217 54.022405,88.236812 28.246045,70.6941 -1.5815449,62.4767 c -3.18767,-0.87819 -6.90436,-1.66551 -14.9930501,-3.17604 -8.98669,-1.67823 -32.28832,-1.67823 -41.275,0 -11.99753,2.24049 -15.52845,3.11241 -23.28333,5.74957 -45.020295,15.309792 -79.199785,53.09709 -89.729575,99.20097 -3.18574,13.94853 -4.34867,31.37275 -2.86075,42.8625 0.18845,1.45521 0.5723,4.47146 0.85299,6.70278 1.88292,14.96815 7.13206,31.2419 14.56502,45.15556 2.63871,4.93936 4.61553,8.19296 5.30491,8.73125 0.89438,0.69834 54.157745,0.63773 54.857905,-0.0624 0.27687,-0.27687 0.68876,-1.4456 0.91532,-2.59717 2.39291,-12.16291 7.64249,-20.69456 21.11601,-34.31784 5.29015,-5.34895 9.61844,-9.94986 9.61844,-10.22426 0,-0.2744 -5.82493,-6.3317 -12.9443,-13.46067 -7.11937,-7.12897 -12.87405,-13.02924 -12.7882,-13.11173 0.0859,-0.0825 1.26737,0.0613 2.62556,0.31958 1.35819,0.25825 3.59933,0.57643 4.98029,0.70708 l 2.51086,0.23753 33.15978,33.21225 c 18.23789,18.26673 33.63658,33.92661 34.21933,34.79974 2.46163,3.68822 4.71344,9.42374 4.21242,10.72935 -0.43412,1.13133 -5.8083,0.78016 -6.28391,-0.4106 -2.38337,-5.96709 -2.82664,-6.55678 -11.53547,-15.34583 -4.5661,-4.60816 -8.47527,-8.37848 -8.68705,-8.37848 -0.62264,0 -16.59088,16.25412 -17.67522,17.99167 -0.54489,0.87312 -1.40276,2.69875 -1.90638,4.05694 l -0.91568,2.46945 -3.0749,0.10193 -3.0749,0.10193 v -1.01684 c 0,-1.99973 2.08779,-6.956 4.33859,-10.29952 0.58777,-0.87313 4.69392,-5.24603 9.12476,-9.71757 4.43085,-4.47153 8.05609,-8.36388 8.05609,-8.64967 0,-0.28578 -1.58838,-2.10203 -3.52974,-4.03611 l -3.52974,-3.51649 -8.65197,8.63839 c -9.0995,9.08523 -11.25971,11.73912 -13.57227,16.67398 -1.3549,2.89128 -3.17184,8.52932 -3.17184,9.84235 0,1.73181 -0.55705,2.05401 -3.55126,2.05401 -3.41431,0 -3.42478,-0.0157 -2.63309,-3.95887 2.21095,-11.01206 5.27923,-15.95117 17.7186,-28.52221 4.90978,-4.96174 8.92686,-9.1716 8.92686,-9.35523 0,-0.95126 -7.03006,-7.3188 -7.72577,-6.99769 -1.50815,0.6961 -18.88382,19.00354 -20.90999,22.03129 -4.15493,6.2088 -7.31676,13.89742 -8.55595,20.80549 -0.33065,1.84326 -0.70996,3.90701 -0.84292,4.58611 l -0.24175,1.23472 -31.836315,0.0901 c -30.57605,0.0865 -31.86216,0.0642 -32.48921,-0.56283 z m 125.848615,-84.98766 c 10.74454,-10.77044 8.90547,-30.00364 -3.66687,-38.34869 -2.40365,-1.59546 -2.83784,-1.57303 -5.34172,0.27598 -9.78927,7.22898 -13.61858,20.74988 -8.15176,28.78304 1.40263,2.06108 6.54531,7.72897 7.45406,8.21532 0.96967,0.51895 1.47818,-0.29351 1.7571,-2.8074 0.2194,-1.97742 0.98848,-6.87923 2.31068,-14.72728 0.85202,-5.05721 0.97264,-4.53303 1.42075,6.17361 0.69045,16.49726 0.5573,16.1047 4.21776,12.43542 z m 46.83806,-6.338 c 7.18712,-2.58548 12.66187,-7.84365 15.511,-14.89737 2.30825,-5.71466 1.98436,-15.90074 -0.52338,-16.46002 -0.51419,-0.11468 -1.49052,-0.35096 -2.16961,-0.52507 -13.3296,-3.41761 -29.28055996,9.60497 -29.28055996,23.90505 0,3.40797 0.29052,3.73826 2.05536006,2.3368 1.19342,-0.94769 3.90732,-3.02372 14.3124499,-10.94847 2.11431,-1.6103 3.91644,-2.85557 4.00473,-2.76728 0.19145,0.19146 0.0556,0.38125 -3.79198,5.29638 -9.2308599,11.79215 -11.2888899,14.53025 -11.2888899,15.01927 0,0.90558 7.8641799,0.23025 11.1708799,-0.95929 z M 0.95082504,273.87693 c -0.17306,-0.33955 -0.51051,-1.64924 -0.7499,-2.91042 -0.93307,-4.91586 -3.66063994,-10.92018 -6.92997994,-15.25525 -1.62151,-2.15009 -64.6621701,-65.61523 -65.8068201,-66.24993 -0.36458,-0.20215 -1.52702,-0.11785 -3.175,0.23024 -15.72112,3.32072 -31.745565,-6.33003 -36.697935,-22.10138 -1.91514,-6.099 -0.69577,-19.61084 1.92322,-21.31118 3.86793,-2.51117 15.213875,-2.97328 21.276525,-0.86658 10.76011,3.73902 18.27465,11.64892 21.1309,22.24266 1.07305,3.97991 1.24636,10.79134 0.3577,14.05864 -0.29024,1.06715 -0.5296,2.17321 -0.53191,2.45791 -0.002,0.28469 14.89677,15.44532 33.10905,33.69027 34.79056004,34.85298 34.86924004,34.93835 38.0591001,41.28935 2.17988,4.34013 4.73942,13.3939 4.19074,14.82374 -0.31683,0.82563 -5.72885,0.73941 -6.15569006,-0.0981 z M -79.545445,183.37833 c 0,-0.24864 -2.30138,-3.38396 -5.11417,-6.96736 -2.81279,-3.58342 -6.08513,-7.75411 -7.27185,-9.26821 -1.18673,-1.5141 -2.07153,-2.83908 -1.96622,-2.94439 0.17126,-0.17126 4.62114,3.12255 15.69239,11.61552 4.48162,3.43794 4.65905,3.4111 4.65102,-0.70367 -0.0271,-13.89707 -12.15367,-25.36672 -26.09951,-24.68569 -7.043775,0.34398 -7.247445,0.59021 -7.205565,8.71142 0.0555,10.762 6.17821,19.4369 16.485685,23.35751 3.44757,1.31134 10.82822,1.91447 10.82822,0.88487 z m 12.31959,-33.70149 c -6.97502,-4.57678 -10.02406,-10.4026 -10.00462,-19.11589 0.0151,-6.75982 1.39007,-10.43817 5.67462,-15.18066 1.53993,-1.70451 1.78289,-1.71349 4.97473,-0.18384 11.90299,5.70435 16.57549,19.44992 10.56192,31.07104 -2.61849,5.06018 -2.35706,5.30431 -6.24577,-5.83243 -3.46122,-9.91247 -3.54019,-10.08704 -3.92127,-8.66961 -0.15203,0.56546 -0.19615,1.15798 -0.098,1.31672 0.0981,0.15874 0.39957,2.07734 0.66992,4.26356 0.27034,2.18622 0.76636,6.08272 1.10226,8.65888 0.76072,5.83433 0.70213,5.91362 -2.71375,3.67223 z m 58.0145601,1.17877 c -0.11411,-0.29738 -0.0964,-0.97689 0.0393,-1.51003 0.13571,-0.53314 0.54515,-3.3506 0.90986,-6.26102 0.3647,-2.91041 0.83917,-6.61234 1.05438,-8.22649 0.40794,-3.05973 0.23524,-4.65662 -0.38429,-3.55337 -0.37926,0.67538 -1.30835,3.26269 -4.2300901,11.77986 -2.47685,7.22029 -2.58195,7.40414 -3.52922,6.17361 -3.37427,-4.38325 -5.37603,-12.52076 -4.19878,-17.06879 1.69516,-6.54886 2.94167,-8.90574 6.64615,-12.56638 2.61629,-2.58535 6.4007301,-4.91075 8.9458901,-5.49693 1.95357,-0.44994 5.91174,5.14607 7.47306,10.56532 2.50361,8.68985 -0.47672,17.83157 -7.74235,23.74854 -2.54349,2.07136 -4.71258,3.12271 -4.9839,2.41568 z M -42.785895,127.23568 c -9.2936,-9.78375 -7.55405,-26.2033 3.58917,-33.877928 l 1.9452,-1.33971 1.6954,0.98595 c 9.18857,5.34355 12.8022,18.719128 7.83766,29.010468 -1.43377,2.97214 -5.63883,8.00747 -6.46046,7.73602 -0.21739,-0.0718 -0.56638,-1.89574 -0.79535,-4.15667 -0.2244,-2.21578 -0.58255,-5.77494 -0.7959,-7.90925 -0.21336,-2.1343 -0.58348,-5.06632 -0.8225,-6.5156 l -0.43459,-2.63504 -0.27509,1.40032 c -0.35377,1.80088 -1.1989,9.26757 -1.72574,15.24685 -0.49035,5.56515 -0.4461,5.54095 -3.7578,2.05459 z"
       id="path4128" /></g><g
     id="g171683"
     transform="matrix(0.98042818,0,0,0.98042818,21.740908,-3.9216692)"><path
       inkscape:connector-curvature="0"
       style="fill:#000000;fill-opacity:1;stroke-width:0.733784"
       id="path8-3-4"
       d="m 245.2513,35.0556 a 1.8197853,1.8197853 0 0 0 -0.8438,-0.2202 l -2.2014,-8.5559 a 1.8344611,1.8344611 0 0 0 -1.3281,-3.4048 l -2.3408,-4.3293 a 1.8197853,1.8197853 0 0 0 0.3156,-0.4036 1.8344611,1.8344611 0 0 0 -2.715,-2.348 l -4.3513,-3.4929 a 1.8344611,1.8344611 0 0 0 -3.0893,-1.9298 l -8.8201,-4.1752 a 1.8344611,1.8344611 0 0 0 -3.4048,-1.2475 1.8197853,1.8197853 0 0 0 -0.1834,0.521 l -14.0666,0.4182 a 1.8365882,1.8365882 0 0 0 -3.5222,1.042 l -11.4691,7.3378 a 1.8197853,1.8197853 0 0 0 -0.3961,-0.3008 1.8417989,1.8417989 0 0 0 -2.0914,3.0012 l -5.6134,10.5078 a 1.8355065,1.8355065 0 0 0 -0.9833,3.5368 l -0.8733,15.4095 a 1.8344611,1.8344611 0 1 0 0.6165,3.6101 l 3.7276,9.1357 a 1.8197853,1.8197853 0 0 0 -0.5137,0.5944 1.8344611,1.8344611 0 0 0 2.3848,2.5462 l 6.6042,8.4386 a 1.8417989,1.8417989 0 1 0 2.9937,2.0986 1.8051096,1.8051096 0 0 0 0.073,-0.1762 l 13.9419,1.7171 a 1.8344611,1.8344611 0 0 0 3.6176,-0.3009 l 11.3957,-2.7737 a 1.8344611,1.8344611 0 1 0 3.4047,-1.3502 l 9.0623,-5.6868 a 1.8197853,1.8197853 0 0 0 0.2202,0.1468 1.8344611,1.8344611 0 0 0 2.2012,-2.8617 l 6.1052,-11.0656 a 1.8379835,1.8379835 0 0 0 1.0273,-3.5294 l 0.587,-8.4826 a 1.8344611,1.8344611 0 0 0 0.5429,-3.4121 z m -8.9008,26.0566 -0.2127,-0.065 -0.2201,-18.7189 a 1.8344611,1.8344611 0 0 0 0.5209,-0.2201 l 5.6062,5.6428 -0.058,0.088 a 1.8344611,1.8344611 0 0 0 0.3889,2.2527 z M 185.4772,17.3126 a 1.8197853,1.8197853 0 0 0 0.345,0.058 l 3.456,21.1109 a 1.8271231,1.8271231 0 0 0 -0.3008,0.1542 l -7.0002,-6.7583 -1.7392,-1.6583 v -0.052 a 1.8417989,1.8417989 0 0 0 -0.4108,-2.2673 z m 50.1396,-0.8805 a 1.8271231,1.8271231 0 0 0 -0.081,1.4677 l -4.9384,2.6195 a 1.7170555,1.7170555 0 0 0 -0.8072,-0.5356 l 0.1982,-2.2014 0.4109,-4.4981 a 1.8417989,1.8417989 0 0 0 0.8806,-0.3669 z m -1.5262,45.5313 a 1.8197853,1.8197853 0 0 0 -0.1762,0.4844 l -21.4119,-2.7664 a 1.8417989,1.8417989 0 0 0 -0.1614,-0.5871 l 22.0136,-17.1192 a 1.651015,1.651015 0 0 0 0.7337,0.3596 l 0.2202,18.7042 a 1.8271231,1.8271231 0 0 0 -1.218,0.9245 z m -39.8593,-2.4582 a 1.8271231,1.8271231 0 0 0 -1.607,-1.4088 l -2.0105,-16.2387 a 1.8344611,1.8344611 0 0 0 0.3669,-0.1834 l 10.2216,9.7446 7.8956,7.5214 v 0.051 a 1.8197853,1.8197853 0 0 0 -0.1689,0.4696 h -8.4605 z m 10.5811,-43.8289 7.0371,19.6801 a 1.7830961,1.7830961 0 0 0 -0.5943,1.4676 l -5.4375,0.7338 -14.1253,1.9371 a 1.8271231,1.8271231 0 0 0 -0.4769,-0.7338 l 12.8778,-23.1435 a 1.8271231,1.8271231 0 0 0 0.7191,0.058 z m 28.8378,25.0075 a 1.8417989,1.8417989 0 0 0 0.1688,0.631 l -22.0135,17.1191 a 1.6216636,1.6216636 0 0 0 -0.565,-0.3081 l 0.6016,-6.1859 1.3282,-13.3989 a 1.8271231,1.8271231 0 0 0 1.4309,-0.7924 h 0.096 z m -41.8258,-0.367 19.7096,-2.6563 a 1.8197853,1.8197853 0 0 0 0.6825,0.6677 l 0.1467,0.065 -0.7339,7.3379 -1.196,12.3202 a 1.8417989,1.8417989 0 0 0 -0.7338,0.2863 l -18.1392,-17.266 v -0.051 a 1.8344611,1.8344611 0 0 0 0.2495,-0.7044 z m 35.5594,-18.7115 a 1.8417989,1.8417989 0 0 0 0.2421,1.064 L 214.1975,35.261 a 1.7537448,1.7537448 0 0 0 -1.6143,-0.3155 l -6.9929,-19.5553 a 1.8197853,1.8197853 0 0 0 0.5796,-0.6018 l 16.1434,5.1366 z m 7.1397,17.3833 a 1.5923123,1.5923123 0 0 0 -0.7338,0.8805 l -18.873,-2.9351 a 1.8417989,1.8417989 0 0 0 -0.1761,-1.042 h 0.036 l 13.4357,-12.621 0.132,0.088 a 1.8344611,1.8344611 0 0 0 1.0567,0.2202 l 1.761,5.2978 z M 203.3669,15.2141 190.4816,38.3796 A 1.8197853,1.8197853 0 0 0 190.1,38.3146 l -3.456,-21.111 a 1.790434,1.790434 0 0 0 1.1154,-1.4676 l 15.0939,-1.3648 a 1.8271231,1.8271231 0 0 0 0.5136,0.8438 z m 24.4792,5.2833 a 1.8417989,1.8417989 0 0 0 -0.2055,0.286 l -21.2065,-6.7875 a 1.8417989,1.8417989 0 0 0 -0.08,-0.7337 l 10.4124,-6.1565 a 1.8197853,1.8197853 0 0 0 0.4403,0.3448 1.8271231,1.8271231 0 0 0 1.5629,0.087 l 5.9803,8.5339 z M 194.092,60.7893 a 1.8197853,1.8197853 0 0 0 0.1614,-0.4549 l 14.6756,-0.045 a 1.7097178,1.7097178 0 0 0 1.1227,1.2841 v 0.1029 l -1.4676,10.5006 a 1.8271231,1.8271231 0 0 0 -0.9245,0.4988 L 195.3174,61.8892 Z M 242.7564,35.782 a 1.8197853,1.8197853 0 0 0 -0.2347,1.1667 l -2.128,0.9465 -3.4488,1.5484 A 1.8271231,1.8271231 0 0 0 236.49,39.0253 l 2.7223,-7.3378 1.9372,-5.2172 a 1.8197853,1.8197853 0 0 0 0.2715,0 l 2.2014,8.5265 a 1.8271231,1.8271231 0 0 0 -0.866,0.7852 z m -3.1699,-11.1462 a 1.8271231,1.8271231 0 0 0 0.8218,1.5409 l -4.6962,12.5477 a 1.8344611,1.8344611 0 0 0 -0.4035,0 l -5.1365,-15.4093 a 1.8197853,1.8197853 0 0 0 0.6531,-0.6751 v -0.058 l 3.214,0.7704 z m -10.273,-11.5203 a 1.8344611,1.8344611 0 0 0 0.3082,0.1321 l -0.1687,1.8196 -0.4403,4.843 a 1.8417989,1.8417989 0 0 0 -0.4329,0.1175 l -6.883,-9.7594 -2.2454,-3.2066 0.074,-0.087 8.8053,4.1532 a 1.8344611,1.8344611 0 0 0 0.9319,1.9887 z m -12.9806,-6.7289 -10.4124,6.1931 a 1.790434,1.790434 0 0 0 -1.8491,-0.5135 l -0.7339,-1.2916 -1.6803,-2.9351 a 1.7757583,1.7757583 0 0 0 0.6457,-1.1594 l 14.0154,-0.4182 z m -36.6892,24.4277 3.0892,2.9352 5.6649,5.4666 v 0.052 a 1.8271231,1.8271231 0 0 0 -0.1029,1.5189 l -9.444,6.1785 a 1.8197853,1.8197853 0 0 0 -0.3815,-0.2862 1.8344611,1.8344611 0 0 0 -0.3668,-0.1468 l 0.8732,-15.4094 a 1.8344611,1.8344611 0 0 0 0.6825,-0.3082 z m -0.3962,18.2492 a 1.8271231,1.8271231 0 0 0 0.058,-1.4015 l 1.9592,-1.2915 7.4478,-4.9016 a 1.7610826,1.7610826 0 0 0 1.0714,0.499 l 2.0326,16.2385 a 1.8344611,1.8344611 0 0 0 -0.521,0.2862 l -8.3871,-6.5599 z m 30.54,23.2976 a 1.8271231,1.8271231 0 0 0 -0.4109,-0.1613 l 1.4677,-10.5079 a 1.8417989,1.8417989 0 0 0 0.9832,-0.3962 l 5.0117,3.9844 5.54,4.4027 a 1.5482852,1.5482852 0 0 0 -0.33,0.8292 l -11.4471,2.7884 a 1.8197853,1.8197853 0 0 0 -0.8146,-0.9393 z m 14.9619,-3.2506 a 1.8344611,1.8344611 0 0 0 -1.7463,0 l -6.296,-4.9897 -4.4027,-3.4635 0.058,-0.1394 15.9304,2.0471 5.5988,0.7339 a 1.8417989,1.8417989 0 0 0 0.1394,0.3816 l -8.9962,5.6208 a 1.8417989,1.8417989 0 0 0 -0.2862,-0.1908 z m 17.8897,-21.9401 -5.6061,-5.6428 0.058,-0.1101 a 1.8197853,1.8197853 0 0 0 0.1835,-1.2255 l 5.5914,-2.4434 a 1.7537448,1.7537448 0 0 0 1.0053,0.7337 l -0.5651,8.4386 a 1.8344611,1.8344611 0 0 0 -0.6677,0.2495 z m -2.4729,-23.8921 a 1.8197853,1.8197853 0 0 0 -0.3962,0.4916 v 0.058 l -3.7423,-0.9026 -4.9457,-1.1886 a 1.8344611,1.8344611 0 0 0 -0.058,-0.4845 l 5.0045,-2.6561 a 1.7830961,1.7830961 0 0 0 1.8491,0.3961 z M 199.0743,7.6635 a 1.8051096,1.8051096 0 0 0 1.8271,0.6017 l 2.4508,4.2633 a 1.7317313,1.7317313 0 0 0 -0.5649,1.0859 l -15.1013,1.3869 v 0 z m -20.3919,42.1191 0.088,-0.058 4.4687,3.5001 7.5506,5.929 a 1.8271231,1.8271231 0 0 0 -0.1468,0.4917 l -2.1206,0.1614 -4.0506,0.3082 a 1.8197853,1.8197853 0 0 0 -2.0471,-1.2548 z m 5.4888,12.0341 a 1.695042,1.695042 0 0 0 0.3815,-0.8732 l 6.1418,-0.4477 a 1.8271231,1.8271231 0 0 0 1.1961,1.1888 l -0.5723,8.4605 a 1.8417989,1.8417989 0 0 0 -0.5872,0.1394 z m 8.167,8.5486 -0.1688,-0.074 0.5724,-8.5631 a 1.8344611,1.8344611 0 0 0 0.7704,-0.3155 l 13.6484,11.9753 c 0,0.058 0,0.1099 -0.045,0.1687 l -13.8319,-1.7024 a 1.8344611,1.8344611 0 0 0 -0.9465,-1.4896 z"
       class="cls-1" /><g
       transform="translate(-134.5666,53.1802)"
       id="g130-6-5"><g
         id="g4611-7-0"
         transform="translate(1.29979,-0.18983208)"><path
           inkscape:connector-curvature="0"
           style="fill:#000000;fill-opacity:1;stroke-width:0.66135"
           id="path10-5-3"
           d="M 134.58621,32.089029 V 20.237643 h 1.03171 v 11.851386 z"
           class="cls-1" /><path
           inkscape:connector-curvature="0"
           style="fill:#000000;fill-opacity:1;stroke-width:0.66135"
           id="path12-3-6"
           d="m 146.54341,20.237643 h 0.9788 v 11.851386 h -0.80685 l -7.51954,-10.105423 v 10.105423 h -0.97219 V 20.237643 h 0.82669 l 7.49971,10.085583 z"
           class="cls-1" /><path
           inkscape:connector-curvature="0"
           style="fill:#000000;fill-opacity:1;stroke-width:0.66135"
           id="path14-5-1"
           d="m 152.15166,31.493815 a 4.8146257,4.8146257 0 0 1 -1.89146,-2.089865 7.4335704,7.4335704 0 0 1 -0.66135,-3.234 7.4335704,7.4335704 0 0 1 0.66135,-3.234 4.7617177,4.7617177 0 0 1 1.89146,-2.129546 5.4759753,5.4759753 0 0 1 2.85703,-0.720871 6.3423434,6.3423434 0 0 1 2.2552,0.383583 4.8675336,4.8675336 0 0 1 1.78564,1.157362 l -0.43649,0.826687 a 5.5619508,5.5619508 0 0 0 -1.69305,-1.111068 5.099006,5.099006 0 0 0 -1.89146,-0.337288 3.9680981,3.9680981 0 0 0 -3.18771,1.322699 5.7008342,5.7008342 0 0 0 -1.13752,3.78292 5.7537422,5.7537422 0 0 0 1.1243,3.802761 3.9680981,3.9680981 0 0 0 3.19432,1.322699 5.0923925,5.0923925 0 0 0 1.89146,-0.337288 5.5487238,5.5487238 0 0 0 1.69305,-1.111067 l 0.43649,0.826687 a 4.8609201,4.8609201 0 0 1 -1.78564,1.157362 6.3423434,6.3423434 0 0 1 -2.25521,0.383582 5.4230674,5.4230674 0 0 1 -2.85041,-0.661349 z"
           class="cls-1" /><path
           inkscape:connector-curvature="0"
           style="fill:#000000;fill-opacity:1;stroke-width:0.66135"
           id="path16-6-0"
           d="M 164.22129,32.089029 V 21.143692 h -4.25248 v -0.906049 h 9.51682 v 0.906049 h -4.23925 v 10.945337 z"
           class="cls-1" /></g><g
         id="g112-2-6"><path
           inkscape:connector-curvature="0"
           style="fill:#000000;fill-opacity:1"
           id="path18-9-3"
           d="m 134.58621,84.44233 v -41.64 h 3.66 v 41.64 z"
           class="cls-1" /><path
           inkscape:connector-curvature="0"
           style="fill:#000000;fill-opacity:1"
           id="path20-1-2"
           d="m 170.07621,66.19233 v 18.25 h -3.6 v -18 q 0,-4.25 -1.71,-6.2 -1.71,-1.95 -5.43,-1.95 a 9.17,9.17 0 0 0 -6.82,2.6 9.48,9.48 0 0 0 -2.57,7 v 16.6 h -3.6 v -28.7 h 3.54 v 4.9 a 9.57,9.57 0 0 1 3.93,-4.16 11.9,11.9 0 0 1 5.94,-1.45 q 10.32,0 10.32,11.11 z"
           class="cls-1" /><path
           inkscape:connector-curvature="0"
           style="fill:#000000;fill-opacity:1"
           id="path22-2-0"
           d="m 191.44621,81.61233 -0.18,3 a 20.57,20.57 0 0 1 -2.78,0.18 q -4.84,0 -7.32,-2.63 a 10,10 0 0 1 -2.48,-7.17 v -16.3 h -5.67 v -2.9 h 5.67 v -8.86 h 3.6 v 8.86 h 8.39 v 2.9 h -8.39 v 15.83 a 7.77,7.77 0 0 0 1.69,5.47 6.37,6.37 0 0 0 4.93,1.83 18,18 0 0 0 2.54,-0.21 z"
           class="cls-1" /><path
           inkscape:connector-curvature="0"
           style="fill:#000000;fill-opacity:1"
           id="path24-7-6"
           d="m 217.66621,70.56233 h -21.68 q 0.18,5.38 2.83,8.24 2.65,2.86 7.56,2.87 a 14.19,14.19 0 0 0 9.39,-3.54 l 1.43,2.86 a 13.86,13.86 0 0 1 -4.81,2.84 17.42,17.42 0 0 1 -6,1.06 q -6.56,0 -10.34,-4 -3.78,-4 -3.78,-10.9 a 17.41,17.41 0 0 1 1.68,-7.83 12.51,12.51 0 0 1 4.73,-5.17 13.14,13.14 0 0 1 7,-1.86 11.06,11.06 0 0 1 8.8,3.66 q 3.19,3.66 3.19,10.22 z m -18.61,-9.92 a 11.93,11.93 0 0 0 -3,7.27 h 18.25 q -0.12,-4.73 -2.36,-7.3 a 8,8 0 0 0 -6.27,-2.62 8.72,8.72 0 0 0 -6.61,2.65 z"
           class="cls-1" /><path
           inkscape:connector-curvature="0"
           style="fill:#000000;fill-opacity:1"
           id="path26-0-1"
           d="m 238.14621,58.21233 -2.54,0.24 q -4.67,0.47 -6.76,3 a 9.43,9.43 0 0 0 -2.1,6.2 v 16.79 h -3.6 v -28.65 h 3.54 v 5 a 8.86,8.86 0 0 1 3.69,-4 14.66,14.66 0 0 1 5.94,-1.62 l 1.54,-0.12 z"
           class="cls-1" /><path
           inkscape:connector-curvature="0"
           style="fill:#000000;fill-opacity:1"
           id="path28-9-5"
           d="m 240.76621,79.66233 1.89,-3.72 a 19.94,19.94 0 0 0 6.29,3.72 22.67,22.67 0 0 0 7.47,1.12 q 5,0 7.74,-1.95 a 6.37,6.37 0 0 0 2.72,-5.49 4.56,4.56 0 0 0 -1.3,-3.37 9.18,9.18 0 0 0 -3.43,-2.07 51.68,51.68 0 0 0 -5.73,-1.6 55.73,55.73 0 0 1 -7.94,-2.31 12.37,12.37 0 0 1 -5,-3.54 9.1,9.1 0 0 1 -1.92,-6 11,11 0 0 1 1.86,-6.29 12,12 0 0 1 5.32,-4.25 19.88,19.88 0 0 1 8,-1.51 23.5,23.5 0 0 1 8.06,1.36 17.46,17.46 0 0 1 6.35,3.9 l -1.83,3.72 a 20.32,20.32 0 0 0 -6,-3.69 18.45,18.45 0 0 0 -6.59,-1.15 q -4.84,0 -7.59,2 a 6.69,6.69 0 0 0 -2.75,5.7 5.29,5.29 0 0 0 2.42,4.73 23.07,23.07 0 0 0 7.34,2.67 q 5.38,1.3 8.45,2.39 a 12.66,12.66 0 0 1 5.11,3.28 8.23,8.23 0 0 1 2,5.85 10.54,10.54 0 0 1 -1.86,6.2 11.88,11.88 0 0 1 -5.35,4.11 21.14,21.14 0 0 1 -8.15,1.45 q -9.73,0 -15.58,-5.26 z"
           class="cls-1" /><path
           inkscape:connector-curvature="0"
           style="fill:#000000;fill-opacity:1"
           id="path30-3-5"
           d="m 285.24621,82.35233 a 16.85,16.85 0 0 1 -6.71,-7.36 25.82,25.82 0 0 1 -2.33,-11.37 25.63,25.63 0 0 1 2.33,-11.34 16.88,16.88 0 0 1 6.71,-7.35 19.91,19.91 0 0 1 10.28,-2.57 22.73,22.73 0 0 1 7.92,1.33 17.52,17.52 0 0 1 6.26,3.93 l -1.83,3.72 a 21.22,21.22 0 0 0 -5.91,-3.66 17.52,17.52 0 0 0 -6.38,-1.12 q -6.85,0 -10.6,4.46 -3.75,4.46 -3.76,12.57 0,8.21 3.75,12.67 3.75,4.46 10.6,4.46 a 17.51,17.51 0 0 0 6.38,-1.12 21.19,21.19 0 0 0 5.91,-3.66 l 1.83,3.72 a 17.51,17.51 0 0 1 -6.26,3.93 22.73,22.73 0 0 1 -7.92,1.33 19.91,19.91 0 0 1 -10.27,-2.57 z"
           class="cls-1" /><path
           inkscape:connector-curvature="0"
           style="fill:#000000;fill-opacity:1"
           id="path32-6-4"
           d="m 314.40621,43.21233 h 5.79 v 5.38 h -5.79 z m 0.47,41.23 v -28.77 h 4.78 v 28.77 z"
           class="cls-1" /><path
           inkscape:connector-curvature="0"
           style="fill:#000000;fill-opacity:1"
           id="path34-0-7"
           d="m 342.32621,80.84233 -0.24,3.78 a 17.34,17.34 0 0 1 -3,0.24 q -5.2,0 -7.83,-2.72 -2.63,-2.72 -2.63,-7.56 v -15.12 h -5.61 v -3.79 h 5.61 v -8.74 h 4.79 v 8.74 h 8.15 v 3.78 h -8.15 v 14.77 q 0,6.79 6.26,6.79 a 19.22,19.22 0 0 0 2.65,-0.17 z"
           class="cls-1" /><path
           inkscape:connector-curvature="0"
           style="fill:#000000;fill-opacity:1"
           id="path36-6-6"
           d="m 368.00621,55.73233 h 4.78 l -17,39.34 h -4.9 l 4.84,-11 -12.18,-28.34 h 5.08 l 9.63,23.51 z"
           class="cls-1" /></g></g><g
       transform="matrix(0.62212718,0,0,0.62212718,-83.6266,98.0308)"
       id="g5295-2-5"><path
         inkscape:connector-curvature="0"
         id="path288-6-6"
         style="fill:#000000;fill-opacity:1;fill-rule:nonzero;stroke:none;stroke-width:1.33333"
         d="m 134.42042,93.50475 h 12.97334 v 1.09867 h -11.80667 v 10.19199 h 10.156 v 1.09467 h -10.156 v 10.18667 h -1.16667 z" /><path
         inkscape:connector-curvature="0"
         id="path290-1-9"
         style="fill:#000000;fill-opacity:1;fill-rule:nonzero;stroke:none;stroke-width:1.33333"
         d="m 161.80976,99.95675 v 16.12 h -1.12934 v -1.28667 c 0,0 -2.52133,1.57867 -5.30266,1.57867 -4.4,0 -5.30667,-1.776 -5.30667,-8.03067 v -8.38133 h 1.13467 v 8.31866 c 0,5.47867 0.57866,7.06267 4.172,7.06267 2.876,0 5.30266,-1.61467 5.30266,-1.61467 V 99.95675 Z" /><path
         inkscape:connector-curvature="0"
         id="path292-8-3"
         style="fill:#000000;fill-opacity:1;fill-rule:nonzero;stroke:none;stroke-width:1.33333"
         d="m 168.98709,100.98875 v 8.448 c 0,4.80133 0.35467,5.932 2.97467,5.932 0.90533,0 3.172,-0.25467 3.172,-0.25467 l 0.0987,1.02533 c 0,0 -2.14134,0.26 -3.27067,0.26 -2.94267,0 -4.104,-1.09866 -4.104,-5.73866 v -9.672 h -2.55733 v -1.032 h 2.55733 v -5.25467 h 1.12933 v 5.25467 h 5.89067 v 1.032 z" /><path
         inkscape:connector-curvature="0"
         id="path294-7-7"
         style="fill:#000000;fill-opacity:1;fill-rule:nonzero;stroke:none;stroke-width:1.33333"
         d="m 189.55509,99.95675 v 16.12 h -1.13067 v -1.28667 c 0,0 -2.52,1.57867 -5.30666,1.57867 -4.40134,0 -5.308,-1.776 -5.308,-8.03067 v -8.38133 h 1.13066 v 8.31866 c 0,5.47867 0.584,7.06267 4.17734,7.06267 2.87466,0 5.30666,-1.61467 5.30666,-1.61467 V 99.95675 Z" /><path
         inkscape:connector-curvature="0"
         id="path296-9-4"
         style="fill:#000000;fill-opacity:1;fill-rule:nonzero;stroke:none;stroke-width:1.33333"
         d="m 194.65909,99.95675 h 1.136 v 2.51066 c 0,0 2.844,-2.15599 6.40533,-2.83333 v 1.16134 c -3.17066,0.64133 -6.40533,2.73999 -6.40533,2.73999 v 12.54134 h -1.136 z" /><path
         inkscape:connector-curvature="0"
         id="path298-2-5"
         style="fill:#000000;fill-opacity:1;fill-rule:nonzero;stroke:none;stroke-width:1.33333"
         d="m 215.51909,107.43675 c 0,-4.932 -1.57867,-6.74 -4.94267,-6.74 -3.24,0 -5.344,1.83866 -5.344,6.74 z m 0.52,7.60933 0.0627,1.03067 c 0,0 -3.62533,0.292 -5.98933,0.292 -4.812,-0.036 -6.07867,-3.09334 -6.07867,-8.34934 0,-6.38533 2.84933,-8.35333 6.54267,-8.35333 3.97333,0 6.14,2.156 6.14,7.73867 v 1.06266 h -11.484 c 0,4.448 1.16666,6.86534 4.916,6.86534 2.26133,0 5.89066,-0.28667 5.89066,-0.28667" /><path
         inkscape:connector-curvature="0"
         id="path300-0-2"
         style="fill:#000000;fill-opacity:1;fill-rule:nonzero;stroke:none;stroke-width:1.33333"
         d="m 228.47644,93.50475 h 1.16666 v 22.57333 h -1.16666 z" /><path
         inkscape:connector-curvature="0"
         id="path302-2-5"
         style="fill:#000000;fill-opacity:1;fill-rule:nonzero;stroke:none;stroke-width:1.33333"
         d="m 235.1751,116.07675 v -16.12 h 1.13066 v 1.28666 c 0,0 2.88,-1.57733 5.66134,-1.57733 4.4,0 5.30666,1.776 5.30666,8.03067 v 8.38 h -1.13466 v -8.32267 c 0,-5.47333 -0.57867,-7.05733 -4.172,-7.05733 -2.88,0 -5.66134,1.61466 -5.66134,1.61466 v 13.76534 z" /><path
         inkscape:connector-curvature="0"
         id="path304-3-4"
         style="fill:#000000;fill-opacity:1;fill-rule:nonzero;stroke:none;stroke-width:1.33333"
         d="m 254.12843,100.98875 v 8.448 c 0,4.80133 0.348,5.932 2.97333,5.932 0.90134,0 3.172,-0.25467 3.172,-0.25467 l 0.0987,1.02533 c 0,0 -2.14,0.26 -3.27067,0.26 -2.948,0 -4.10933,-1.09866 -4.10933,-5.73866 v -9.672 h -2.55733 v -1.032 h 2.55733 v -5.25467 h 1.136 v 5.25467 h 5.88533 v 1.032 z" /><path
         inkscape:connector-curvature="0"
         id="path306-7-7"
         style="fill:#000000;fill-opacity:1;fill-rule:nonzero;stroke:none;stroke-width:1.33333"
         d="m 273.9151,107.43675 c 0,-4.932 -1.57867,-6.74 -4.94267,-6.74 -3.24533,0 -5.344,1.83866 -5.344,6.74 z m 0.52,7.60933 0.0627,1.03067 c 0,0 -3.62533,0.292 -5.98933,0.292 -4.812,-0.036 -6.07867,-3.09334 -6.07867,-8.34934 0,-6.38533 2.84934,-8.35333 6.54267,-8.35333 3.97333,0 6.14,2.156 6.14,7.73867 v 1.06266 h -11.484 c 0,4.448 1.16667,6.86534 4.916,6.86534 2.26133,0 5.89067,-0.28667 5.89067,-0.28667" /><path
         inkscape:connector-curvature="0"
         id="path308-5-4"
         style="fill:#000000;fill-opacity:1;fill-rule:nonzero;stroke:none;stroke-width:1.33333"
         d="m 279.3471,99.95675 h 1.12933 v 2.51066 c 0,0 2.84933,-2.15599 6.40667,-2.83333 v 1.16134 c -3.16667,0.64133 -6.40667,2.73999 -6.40667,2.73999 v 12.54134 h -1.12933 z" /><path
         inkscape:connector-curvature="0"
         id="path310-9-4"
         style="fill:#000000;fill-opacity:1;fill-rule:nonzero;stroke:none;stroke-width:1.33333"
         d="m 289.9511,116.07675 v -16.12 h 1.136 v 1.28666 c 0,0 2.88,-1.57733 5.66133,-1.57733 4.39467,0 5.30133,1.776 5.30133,8.03067 v 8.38 h -1.12933 v -8.32267 c 0,-5.47333 -0.584,-7.05733 -4.172,-7.05733 -2.88133,0 -5.66133,1.61466 -5.66133,1.61466 v 13.76534 z" /><path
         inkscape:connector-curvature="0"
         id="path312-2-3"
         style="fill:#000000;fill-opacity:1;fill-rule:nonzero;stroke:none;stroke-width:1.33333"
         d="m 317.7951,107.43675 c 0,-4.932 -1.584,-6.74 -4.948,-6.74 -3.23467,0 -5.33867,1.83866 -5.33867,6.74 z m 0.52,7.60933 0.0627,1.03067 c 0,0 -3.624,0.292 -5.98933,0.292 -4.812,-0.036 -6.07733,-3.09334 -6.07733,-8.34934 0,-6.38533 2.848,-8.35333 6.536,-8.35333 3.97866,0 6.14533,2.156 6.14533,7.73867 v 1.06266 h -11.484 c 0,4.448 1.16133,6.86534 4.916,6.86534 2.26133,0 5.89067,-0.28667 5.89067,-0.28667" /><path
         inkscape:connector-curvature="0"
         id="path314-2-0"
         style="fill:#000000;fill-opacity:1;fill-rule:nonzero;stroke:none;stroke-width:1.33333"
         d="m 325.13376,100.98875 v 8.448 c 0,4.80133 0.35334,5.932 2.97334,5.932 0.90666,0 3.172,-0.25467 3.172,-0.25467 l 0.0987,1.02533 c 0,0 -2.14,0.26 -3.27066,0.26 -2.94267,0 -4.104,-1.09866 -4.104,-5.73866 v -9.672 h -2.56267 v -1.032 h 2.56267 v -5.25467 h 1.13066 v 5.25467 h 5.89067 v 1.032 z" /><path
         inkscape:connector-curvature="0"
         id="path316-8-7"
         style="fill:#000000;fill-opacity:1;fill-rule:nonzero;stroke:none;stroke-width:1.33333"
         d="m 342.98176,116.07675 h -1.12933 v -15.088 h -2.23467 v -1.032 h 2.23467 v -1.968 c 0,-4.64133 1.156,-5.74 4.104,-5.74 1.13466,0 2.97333,0.0987 2.97333,0.0987 v 1 c 0,0 -2.06667,-0.0667 -2.97333,-0.0667 -2.20267,0 -2.97467,0.87466 -2.97467,4.73866 v 1.93734 h 5.24 v 1.032 h -5.24 z" /><path
         inkscape:connector-curvature="0"
         id="path318-9-8"
         style="fill:#000000;fill-opacity:1;fill-rule:nonzero;stroke:none;stroke-width:1.33333"
         d="m 362.29509,107.72875 c 0,-5.42267 -1.23466,-7.032 -5.37466,-7.032 -4.14134,0 -5.36534,1.60933 -5.36534,7.032 0,5.54133 0.57867,7.60933 5.36534,7.60933 4.79066,0 5.37466,-2.068 5.37466,-7.60933 m 1.192,0 c 0,6.47866 -1.224,8.63466 -6.56666,8.63466 -5.33867,0 -6.568,-2.156 -6.568,-8.63466 0,-5.96934 1.78133,-8.06267 6.568,-8.06267 4.79066,0 6.56666,2.09333 6.56666,8.06267" /><path
         inkscape:connector-curvature="0"
         id="path320-7-6"
         style="fill:#000000;fill-opacity:1;fill-rule:nonzero;stroke:none;stroke-width:1.33333"
         d="m 367.97776,99.95675 h 1.12933 v 2.51066 c 0,0 2.844,-2.15599 6.40667,-2.83333 v 1.16134 c -3.16667,0.64133 -6.40667,2.73999 -6.40667,2.73999 v 12.54134 h -1.12933 z" /><path
         inkscape:connector-curvature="0"
         id="path322-3-8"
         style="fill:#000000;fill-opacity:1;fill-rule:nonzero;stroke:none;stroke-width:1.33333"
         d="m 398.24843,94.79542 c 0,0 -4.43334,-0.54667 -6.308,-0.54667 -3.692,0 -5.76,1.28667 -5.76,4.51067 0,3.93199 2.00533,4.42133 6.08266,5.06799 4.26667,0.67734 6.6,1.64 6.6,5.70267 0,5.032 -2.396,6.77067 -6.86,6.77067 -2.42666,0 -6.92666,-0.51067 -6.92666,-0.51067 l 0.13466,-1.12933 c 0,0 4.464,0.54666 6.76134,0.54666 3.68666,0 5.66133,-1.54666 5.66133,-5.57866 0,-3.29067 -1.68267,-4.03067 -5.66133,-4.64 -4.43867,-0.68267 -7.02134,-1.42267 -7.02134,-6.16133 0,-4.156 2.68267,-5.67734 6.98934,-5.67734 2.48933,0 6.43733,0.52134 6.43733,0.52134 z" /><path
         inkscape:connector-curvature="0"
         id="path324-6-8"
         style="fill:#000000;fill-opacity:1;fill-rule:nonzero;stroke:none;stroke-width:1.33333"
         d="m 403.15376,116.07675 v -16.12 h 1.13067 v 1.28666 c 0,0 2.52133,-1.57733 5.30666,-1.57733 2.396,0 3.55734,0.51467 4.33334,1.73867 0,0 2.78666,-1.73867 5.95333,-1.73867 4.40133,0 5.308,1.776 5.308,8.03067 v 8.38 h -1.13067 v -8.32267 c 0,-5.47333 -0.58266,-7.05733 -4.17733,-7.05733 -3.14,0 -5.56267,1.584 -5.56267,1.584 0.448,1.224 0.584,2.99466 0.584,5.416 v 8.38 h -1.136 v -8.32267 c 0,-5.47333 -0.57733,-7.05733 -4.172,-7.05733 -2.88,0 -5.30666,1.61466 -5.30666,1.61466 v 13.76534 z" /><path
         inkscape:connector-curvature="0"
         id="path326-1-4"
         style="fill:#000000;fill-opacity:1;fill-rule:nonzero;stroke:none;stroke-width:1.33333"
         d="m 433.71109,108.01408 c -2.52533,0.26133 -3.396,1.42267 -3.396,3.64667 0,2.35333 1.09467,3.67733 3.07334,3.67733 3.036,0 6.344,-1.324 6.344,-1.324 v -6.60933 z m 7.152,5.96933 c 0.0933,0.932 1.29067,1.25467 2.42667,1.35467 l -0.068,1 c -1.39067,0 -2.62,-0.35467 -3.33333,-1.35467 0,0 -3.29734,1.38534 -6.536,1.38534 -2.64667,0 -4.24,-1.58267 -4.24,-4.708 0,-2.74 1.29733,-4.32267 4.46933,-4.64667 l 6.15067,-0.64 v -1.67733 c 0,-2.80667 -1.23467,-3.932 -3.59334,-3.932 -2.36533,0 -6.12,0.54666 -6.12,0.54666 l -0.0947,-1.06799 c 0,0 3.62533,-0.57734 6.21466,-0.57734 3.26534,0 4.724,1.708 4.724,5.03067 z" /><path
         inkscape:connector-curvature="0"
         id="path328-2-3"
         style="fill:#000000;fill-opacity:1;fill-rule:nonzero;stroke:none;stroke-width:1.33333"
         d="m 446.12843,99.95675 h 1.13466 v 2.51066 c 0,0 2.844,-2.15599 6.40667,-2.83333 v 1.16134 c -3.172,0.64133 -6.40667,2.73999 -6.40667,2.73999 v 12.54134 h -1.13466 z" /><path
         inkscape:connector-curvature="0"
         id="path330-9-1"
         style="fill:#000000;fill-opacity:1;fill-rule:nonzero;stroke:none;stroke-width:1.33333"
         d="m 458.80576,100.98875 v 8.448 c 0,4.80133 0.35333,5.932 2.97333,5.932 0.90667,0 3.172,-0.25467 3.172,-0.25467 l 0.0987,1.02533 c 0,0 -2.14,0.26 -3.27067,0.26 -2.94266,0 -4.104,-1.09866 -4.104,-5.73866 v -9.672 h -2.56266 v -1.032 h 2.56266 v -5.25467 h 1.13067 v 5.25467 h 5.89067 v 1.032 z" /><path
         inkscape:connector-curvature="0"
         id="path332-3-4"
         style="fill:#000000;fill-opacity:1;fill-rule:nonzero;stroke:none;stroke-width:1.33333"
         d="m 488.55509,115.72341 c -1.61467,0.32267 -3.78133,0.64534 -5.984,0.64534 -6.66133,0 -8.052,-4.32267 -8.052,-11.47867 0,-7.032 1.16133,-11.672 8.052,-11.672 2.26533,0 4.5,0.32267 5.984,0.60934 l -0.0933,1.12933 c -1.39067,-0.29067 -3.94267,-0.64533 -5.89067,-0.64533 -6.07867,0 -6.82267,4.16133 -6.82267,10.57866 0,6.448 0.87467,10.38 6.82267,10.38 2.04133,0 4.208,-0.31733 5.89067,-0.64133 z" /><path
         inkscape:connector-curvature="0"
         id="path334-1-9"
         style="fill:#000000;fill-opacity:1;fill-rule:nonzero;stroke:none;stroke-width:1.33333"
         d="m 492.52976,99.95675 h 1.12933 v 16.12 h -1.12933 z m 0,-6.452 h 1.12933 v 1.77067 h -1.12933 z" /><path
         inkscape:connector-curvature="0"
         id="path336-9-2"
         style="fill:#000000;fill-opacity:1;fill-rule:nonzero;stroke:none;stroke-width:1.33333"
         d="m 500.84176,100.98875 v 8.448 c 0,4.80133 0.35466,5.932 2.97333,5.932 0.90667,0 3.172,-0.25467 3.172,-0.25467 l 0.1,1.02533 c 0,0 -2.14133,0.26 -3.272,0.26 -2.94267,0 -4.104,-1.09866 -4.104,-5.73866 v -9.672 h -2.56267 v -1.032 h 2.56267 v -5.25467 h 1.13067 v 5.25467 h 5.88533 v 1.032 z" /><path
         inkscape:connector-curvature="0"
         id="path338-4-0"
         style="fill:#000000;fill-opacity:1;fill-rule:nonzero;stroke:none;stroke-width:1.33333"
         d="m 509.82576,99.95675 h 1.13066 v 16.12 h -1.13066 z m 0,-6.452 h 1.13066 v 1.77067 h -1.13066 z" /><path
         inkscape:connector-curvature="0"
         id="path340-7-6"
         style="fill:#000000;fill-opacity:1;fill-rule:nonzero;stroke:none;stroke-width:1.33333"
         d="m 526.87242,107.43675 c 0,-4.932 -1.58266,-6.74 -4.94266,-6.74 -3.23867,0 -5.34267,1.83866 -5.34267,6.74 z m 0.52134,7.60933 0.0627,1.03067 c 0,0 -3.62533,0.292 -5.98933,0.292 -4.81333,-0.036 -6.07867,-3.09334 -6.07867,-8.34934 0,-6.38533 2.84934,-8.35333 6.54134,-8.35333 3.97466,0 6.14133,2.156 6.14133,7.73867 v 1.06266 h -11.484 c 0,4.448 1.16667,6.86534 4.916,6.86534 2.26,0 5.89067,-0.28667 5.89067,-0.28667" /><path
         inkscape:connector-curvature="0"
         id="path342-8-8"
         style="fill:#000000;fill-opacity:1;fill-rule:nonzero;stroke:none;stroke-width:1.33333"
         d="m 542.42442,101.21275 c 0,0 -3.296,-0.516 -5.5,-0.516 -2.072,0 -4.33333,0.61466 -4.33333,3.224 0,2 0.876,2.61466 4.59467,3.188 4.23866,0.68666 5.89066,1.296 5.89066,4.328 0,3.77066 -2.33866,4.932 -6.152,4.932 -1.848,0 -5.33733,-0.516 -5.33733,-0.516 l 0.124,-1.06267 c 0,0 3.5,0.548 5.152,0.548 3.04133,0 5.00933,-0.70933 5.00933,-3.808 0,-2.32267 -1.16133,-2.77067 -5.00933,-3.34933 -3.78667,-0.58267 -5.46933,-1.19734 -5.46933,-4.192 0,-3.41733 2.912,-4.32267 5.53066,-4.32267 2.49067,0 5.568,0.484 5.568,0.484 z" /></g></g></svg>
