<?xml version="1.0" encoding="UTF-8" standalone="no"?>
<!-- Created with Inkscape (http://www.inkscape.org/) -->

<svg
   width="286.86829mm"
   height="223.2193mm"
   viewBox="0 0 286.86828 223.2193"
   version="1.1"
   id="svg5"
   xml:space="preserve"
   inkscape:version="1.1.2 (0a00cf5339, 2022-02-04)"
   sodipodi:docname="favicon.svg"
   xmlns:inkscape="http://www.inkscape.org/namespaces/inkscape"
   xmlns:sodipodi="http://sodipodi.sourceforge.net/DTD/sodipodi-0.dtd"
   xmlns="http://www.w3.org/2000/svg"
   xmlns:svg="http://www.w3.org/2000/svg"><sodipodi:namedview
     id="namedview7"
     pagecolor="#ffffff"
     bordercolor="#666666"
     borderopacity="1.0"
     inkscape:showpageshadow="2"
     inkscape:pageopacity="0.0"
     inkscape:pagecheckerboard="0"
     inkscape:deskcolor="#d1d1d1"
     inkscape:document-units="mm"
     showgrid="false"
     inkscape:zoom="0.17416176"
     inkscape:cx="-749.30341"
     inkscape:cy="864.13918"
     inkscape:window-width="1610"
     inkscape:window-height="986"
     inkscape:window-x="70"
     inkscape:window-y="27"
     inkscape:window-maximized="1"
     inkscape:current-layer="layer1"
     inkscape:pageshadow="2"
     fit-margin-top="0"
     fit-margin-left="0"
     fit-margin-right="0"
     fit-margin-bottom="0"
     width="286.86829mm" /><defs
     id="defs2"><filter
       style="color-interpolation-filters:sRGB"
       inkscape:label="Greyscale"
       id="filter4035"
       x="0"
       y="0"
       width="1"
       height="1"><feColorMatrix
         values="-1 0 0 0 1 0 -1 0 0 1 0 0 -1 0 1 0.21 0.72 0.07 1 0 "
         result="fbSourceGraphic"
         id="feColorMatrix4033" /><feColorMatrix
         result="fbSourceGraphicAlpha"
         in="fbSourceGraphic"
         values="0 0 0 -1 0 0 0 0 -1 0 0 0 0 -1 0 0 0 0 1 0"
         id="feColorMatrix4037" /><feColorMatrix
         id="feColorMatrix4039"
         values="0.21 0.72 0.072 0 0 0.21 0.72 0.072 0 0 0.21 0.72 0.072 0 0 0 0 0 1 0 "
         in="fbSourceGraphic" /></filter></defs><g
     inkscape:label="Camada 1"
     inkscape:groupmode="layer"
     id="layer1"
     transform="translate(180.6431,-51.404022)"><path
       style="fill:#1ebc60;fill-opacity:1;stroke-width:0.352778"
       d="m -156.74736,273.84514 c -1.12769,-1.12768 -6.30372,-10.00528 -9.01442,-15.46096 -23.79952,-47.89989 -18.75038,-105.64931 12.9802,-148.46073 C -99.225085,37.66415 5.5813351,31.29372 67.117845,96.557352 105.62153,137.39308 116.7727,196.64399 95.743999,248.66014 c -3.16201,7.8215 -10.824314,22.2502 -13.279894,25.00704 l -0.74009,0.83089 -31.66442,-0.0901 -31.6644,-0.0901 -0.23944,-1.05833 c -0.13169,-0.58209 -0.52004,-2.64584 -0.86299,-4.58612 -1.46867,-8.30899 -5.03464,-16.36031 -10.3978399,-23.47647 -1.397,-1.8536 -13.07056,-13.86061 -30.8519901,-31.73325 -29.62813,-29.7801 -29.85193,-30.02552 -31.81759,-34.89201 -4.87366,-12.06598 3.34206,-29.57314 16.80515,-35.81068 2.18606,-1.01282 2.55679,-0.92359 6.87266,1.6542 17.55779,10.48695 19.69411,36.01474 4.20808,50.28416 -1.44132,1.32809 -2.62058,2.56491 -2.62058,2.74849 0,0.18358 1.26958,1.59591 2.82128,3.13851 l 2.82128,2.80473 8.20036,-8.10467 c 11.5457001,-11.41096 10.9384401,-10.72824 10.6603701,-11.98523 -0.12876,-0.58208 -0.36964,-1.69333 -0.53528,-2.46944 -0.60604,-2.83959 -0.38529,-10.07023 0.39885,-13.064 2.87203,-10.96507 10.96009,-19.23617 22.3189799,-22.82406 5.91824,-1.86937 19.19113,-0.63118 20.84183,1.94427 2.52702,3.94268 3.04747,15.42282 0.97109,21.42017 -5.32967,15.39406 -20.63897,24.4247 -36.1787399,21.3411 l -3.11916,-0.61894 -9.3087601,9.30379 c -5.11982,5.11708 -9.30876,9.46664 -9.30876,9.66568 0,0.57035 6.83168,7.22782 7.41696,7.22782 0.28885,0 5.0289401,-4.50585 10.5335401,-10.01299 l 10.00837,-10.01299 2.5129199,-0.23523 c 1.38211,-0.12938 3.51377,-0.40384 4.73702,-0.60991 1.22325,-0.20607 2.32748,-0.27129 2.45384,-0.14493 0.12636,0.12636 -5.53756,5.99868 -12.5864899,13.0496 -7.04893,7.05091 -12.75691,12.98706 -12.68439,13.19144 0.0725,0.20438 3.9464,4.23497 8.60865,8.95687 13.9807999,14.15971 19.7904799,23.55431 22.0750099,35.69666 0.22312,1.18591 0.65402,2.35464 0.95755,2.59718 1.04612,0.8359 53.85985,0.62034 54.70348,-0.22327 0.36534,-0.36534 1.90708,-2.86565 3.42611,-5.55625 8.932084,-15.82108 14.978344,-34.56519 16.712704,-51.81146 1.402501,-13.94592 1.403001,-14.91138 0.0159,-29.80972 C 96.796219,157.00611 87.128725,132.33496 72.569725,112.94217 54.022405,88.236812 28.246045,70.6941 -1.5815449,62.4767 c -3.18767,-0.87819 -6.90436,-1.66551 -14.9930501,-3.17604 -8.98669,-1.67823 -32.28832,-1.67823 -41.275,0 -11.99753,2.24049 -15.52845,3.11241 -23.28333,5.74957 -45.020295,15.309792 -79.199785,53.09709 -89.729575,99.20097 -3.18574,13.94853 -4.34867,31.37275 -2.86075,42.8625 0.18845,1.45521 0.5723,4.47146 0.85299,6.70278 1.88292,14.96815 7.13206,31.2419 14.56502,45.15556 2.63871,4.93936 4.61553,8.19296 5.30491,8.73125 0.89438,0.69834 54.157745,0.63773 54.857905,-0.0624 0.27687,-0.27687 0.68876,-1.4456 0.91532,-2.59717 2.39291,-12.16291 7.64249,-20.69456 21.11601,-34.31784 5.29015,-5.34895 9.61844,-9.94986 9.61844,-10.22426 0,-0.2744 -5.82493,-6.3317 -12.9443,-13.46067 -7.11937,-7.12897 -12.87405,-13.02924 -12.7882,-13.11173 0.0859,-0.0825 1.26737,0.0613 2.62556,0.31958 1.35819,0.25825 3.59933,0.57643 4.98029,0.70708 l 2.51086,0.23753 33.15978,33.21225 c 18.23789,18.26673 33.63658,33.92661 34.21933,34.79974 2.46163,3.68822 4.71344,9.42374 4.21242,10.72935 -0.43412,1.13133 -5.8083,0.78016 -6.28391,-0.4106 -2.38337,-5.96709 -2.82664,-6.55678 -11.53547,-15.34583 -4.5661,-4.60816 -8.47527,-8.37848 -8.68705,-8.37848 -0.62264,0 -16.59088,16.25412 -17.67522,17.99167 -0.54489,0.87312 -1.40276,2.69875 -1.90638,4.05694 l -0.91568,2.46945 -3.0749,0.10193 -3.0749,0.10193 v -1.01684 c 0,-1.99973 2.08779,-6.956 4.33859,-10.29952 0.58777,-0.87313 4.69392,-5.24603 9.12476,-9.71757 4.43085,-4.47153 8.05609,-8.36388 8.05609,-8.64967 0,-0.28578 -1.58838,-2.10203 -3.52974,-4.03611 l -3.52974,-3.51649 -8.65197,8.63839 c -9.0995,9.08523 -11.25971,11.73912 -13.57227,16.67398 -1.3549,2.89128 -3.17184,8.52932 -3.17184,9.84235 0,1.73181 -0.55705,2.05401 -3.55126,2.05401 -3.41431,0 -3.42478,-0.0157 -2.63309,-3.95887 2.21095,-11.01206 5.27923,-15.95117 17.7186,-28.52221 4.90978,-4.96174 8.92686,-9.1716 8.92686,-9.35523 0,-0.95126 -7.03006,-7.3188 -7.72577,-6.99769 -1.50815,0.6961 -18.88382,19.00354 -20.90999,22.03129 -4.15493,6.2088 -7.31676,13.89742 -8.55595,20.80549 -0.33065,1.84326 -0.70996,3.90701 -0.84292,4.58611 l -0.24175,1.23472 -31.836315,0.0901 c -30.57605,0.0865 -31.86216,0.0642 -32.48921,-0.56283 z m 125.848615,-84.98766 c 10.74454,-10.77044 8.90547,-30.00364 -3.66687,-38.34869 -2.40365,-1.59546 -2.83784,-1.57303 -5.34172,0.27598 -9.78927,7.22898 -13.61858,20.74988 -8.15176,28.78304 1.40263,2.06108 6.54531,7.72897 7.45406,8.21532 0.96967,0.51895 1.47818,-0.29351 1.7571,-2.8074 0.2194,-1.97742 0.98848,-6.87923 2.31068,-14.72728 0.85202,-5.05721 0.97264,-4.53303 1.42075,6.17361 0.69045,16.49726 0.5573,16.1047 4.21776,12.43542 z m 46.83806,-6.338 c 7.18712,-2.58548 12.66187,-7.84365 15.511,-14.89737 2.30825,-5.71466 1.98436,-15.90074 -0.52338,-16.46002 -0.51419,-0.11468 -1.49052,-0.35096 -2.16961,-0.52507 -13.3296,-3.41761 -29.28055996,9.60497 -29.28055996,23.90505 0,3.40797 0.29052,3.73826 2.05536006,2.3368 1.19342,-0.94769 3.90732,-3.02372 14.3124499,-10.94847 2.11431,-1.6103 3.91644,-2.85557 4.00473,-2.76728 0.19145,0.19146 0.0556,0.38125 -3.79198,5.29638 -9.2308599,11.79215 -11.2888899,14.53025 -11.2888899,15.01927 0,0.90558 7.8641799,0.23025 11.1708799,-0.95929 z M 0.95082504,273.87693 c -0.17306,-0.33955 -0.51051,-1.64924 -0.7499,-2.91042 -0.93307,-4.91586 -3.66063994,-10.92018 -6.92997994,-15.25525 -1.62151,-2.15009 -64.6621701,-65.61523 -65.8068201,-66.24993 -0.36458,-0.20215 -1.52702,-0.11785 -3.175,0.23024 -15.72112,3.32072 -31.745565,-6.33003 -36.697935,-22.10138 -1.91514,-6.099 -0.69577,-19.61084 1.92322,-21.31118 3.86793,-2.51117 15.213875,-2.97328 21.276525,-0.86658 10.76011,3.73902 18.27465,11.64892 21.1309,22.24266 1.07305,3.97991 1.24636,10.79134 0.3577,14.05864 -0.29024,1.06715 -0.5296,2.17321 -0.53191,2.45791 -0.002,0.28469 14.89677,15.44532 33.10905,33.69027 34.79056004,34.85298 34.86924004,34.93835 38.0591001,41.28935 2.17988,4.34013 4.73942,13.3939 4.19074,14.82374 -0.31683,0.82563 -5.72885,0.73941 -6.15569006,-0.0981 z M -79.545445,183.37833 c 0,-0.24864 -2.30138,-3.38396 -5.11417,-6.96736 -2.81279,-3.58342 -6.08513,-7.75411 -7.27185,-9.26821 -1.18673,-1.5141 -2.07153,-2.83908 -1.96622,-2.94439 0.17126,-0.17126 4.62114,3.12255 15.69239,11.61552 4.48162,3.43794 4.65905,3.4111 4.65102,-0.70367 -0.0271,-13.89707 -12.15367,-25.36672 -26.09951,-24.68569 -7.043775,0.34398 -7.247445,0.59021 -7.205565,8.71142 0.0555,10.762 6.17821,19.4369 16.485685,23.35751 3.44757,1.31134 10.82822,1.91447 10.82822,0.88487 z m 12.31959,-33.70149 c -6.97502,-4.57678 -10.02406,-10.4026 -10.00462,-19.11589 0.0151,-6.75982 1.39007,-10.43817 5.67462,-15.18066 1.53993,-1.70451 1.78289,-1.71349 4.97473,-0.18384 11.90299,5.70435 16.57549,19.44992 10.56192,31.07104 -2.61849,5.06018 -2.35706,5.30431 -6.24577,-5.83243 -3.46122,-9.91247 -3.54019,-10.08704 -3.92127,-8.66961 -0.15203,0.56546 -0.19615,1.15798 -0.098,1.31672 0.0981,0.15874 0.39957,2.07734 0.66992,4.26356 0.27034,2.18622 0.76636,6.08272 1.10226,8.65888 0.76072,5.83433 0.70213,5.91362 -2.71375,3.67223 z m 58.0145601,1.17877 c -0.11411,-0.29738 -0.0964,-0.97689 0.0393,-1.51003 0.13571,-0.53314 0.54515,-3.3506 0.90986,-6.26102 0.3647,-2.91041 0.83917,-6.61234 1.05438,-8.22649 0.40794,-3.05973 0.23524,-4.65662 -0.38429,-3.55337 -0.37926,0.67538 -1.30835,3.26269 -4.2300901,11.77986 -2.47685,7.22029 -2.58195,7.40414 -3.52922,6.17361 -3.37427,-4.38325 -5.37603,-12.52076 -4.19878,-17.06879 1.69516,-6.54886 2.94167,-8.90574 6.64615,-12.56638 2.61629,-2.58535 6.4007301,-4.91075 8.9458901,-5.49693 1.95357,-0.44994 5.91174,5.14607 7.47306,10.56532 2.50361,8.68985 -0.47672,17.83157 -7.74235,23.74854 -2.54349,2.07136 -4.71258,3.12271 -4.9839,2.41568 z M -42.785895,127.23568 c -9.2936,-9.78375 -7.55405,-26.2033 3.58917,-33.877928 l 1.9452,-1.33971 1.6954,0.98595 c 9.18857,5.34355 12.8022,18.719128 7.83766,29.010468 -1.43377,2.97214 -5.63883,8.00747 -6.46046,7.73602 -0.21739,-0.0718 -0.56638,-1.89574 -0.79535,-4.15667 -0.2244,-2.21578 -0.58255,-5.77494 -0.7959,-7.90925 -0.21336,-2.1343 -0.58348,-5.06632 -0.8225,-6.5156 l -0.43459,-2.63504 -0.27509,1.40032 c -0.35377,1.80088 -1.1989,9.26757 -1.72574,15.24685 -0.49035,5.56515 -0.4461,5.54095 -3.7578,2.05459 z"
       id="path4128" /></g></svg>
